<?xml version="1.0" encoding="UTF-8"?>
<svg id="Layer_2" data-name="Layer 2" xmlns="http://www.w3.org/2000/svg" viewBox="0 0 473.87 381.93" height="50" width="50">
  <defs>
    <style>
      .cls-1 {
        fill: #2db24b;
      }

      .cls-2 {
        fill: #e9e622;
      }

      .cls-3 {
        fill: #009345;
      }
    </style>
  </defs>
  <g id="Layer_1-2" data-name="Layer 1">
    <g>
      <g>
        <path class="cls-1" d="M52.42,358.27c-14.77,0-29.98-3.06-45.2-9.09-1.18-.47-2.1-1.42-2.53-2.61-.43-1.19-.33-2.51.28-3.63,21.26-38.8,56.98-60.17,100.6-60.17,11.99,0,24.08,1.62,35.92,4.83,2.14.58,3.52,2.66,3.23,4.86-.29,2.2-2.17,3.84-4.39,3.84-44.5,0-76.45,11.96-97.37,36.52,2.38.13,4.76.19,7.14.19h0c52.14,0,90.86-31.21,91.24-31.52.82-.67,1.81-1,2.8-1,1.08,0,2.15.39,2.99,1.16,1.62,1.49,1.9,3.94.66,5.76-1.42,2.08-35.5,50.85-95.39,50.85Z"/>
        <path class="cls-2" d="M105.57,287.2c12.09,0,23.9,1.73,34.76,4.68-31.11,0-77.78,5.52-105.89,44.66,5.34.62,10.56.91,15.66.91,54.45,0,94.06-32.52,94.06-32.52,0,0-33.5,48.93-91.74,48.93-13.27,0-27.83-2.54-43.57-8.78,23.56-43.01,61.34-57.87,96.72-57.87M144.16,304.92h0M105.58,278.35v8.85-8.85c-45.32,0-82.42,22.19-104.49,62.47-1.22,2.23-1.42,4.87-.56,7.26.86,2.39,2.71,4.29,5.06,5.23,15.74,6.24,31.5,9.4,46.83,9.4,25.81,0,51.11-9.11,73.16-26.34,15.6-12.19,24.46-24.41,25.73-26.23,1.07-1.46,1.7-3.26,1.7-5.21,0-3.64-2.19-6.76-5.33-8.12.74-1.1,1.23-2.37,1.42-3.76.58-4.4-2.18-8.55-6.46-9.71-12.22-3.31-24.69-4.98-37.07-4.98h0ZM53.15,328.55c19.03-17.8,45.97-26.94,81.73-27.77-10.37,7.28-41.79,26.81-81.73,27.77h0Z"/>
      </g>
      <g>
        <path class="cls-1" d="M146.86,292.79c-.3,0-.59-.03-.89-.09-1.13-.23-28.1-5.94-54.97-25.54-24.96-18.2-54.31-52.22-52.44-110.92.04-1.18.54-2.29,1.4-3.09.82-.77,1.9-1.19,3.02-1.19.05,0,.1,0,.16,0,34.55,1.21,63.4,13.84,83.42,36.51,24.53,27.77,30.92,64.05,28.72,88.75-.19,2.15-1.91,3.85-4.06,4.02-.12,0-.24.01-.35.01-2.01,0-3.79-1.37-4.29-3.35-6.71-26.67-24.81-63.18-72.54-89.57,17.26,64.93,74.29,95.8,74.89,96.12,1.95,1.03,2.84,3.34,2.1,5.41-.64,1.79-2.33,2.93-4.16,2.93Z"/>
        <path class="cls-2" d="M42.98,156.38c85.81,3.01,111.91,75.27,107.89,120.44-4.52-17.94-20.07-65.74-83.3-96.85,14.59,74.28,79.29,108.4,79.29,108.4,0,0-107.39-22.08-103.88-131.98M42.98,147.53c-2.24,0-4.4.85-6.05,2.39-1.72,1.61-2.73,3.83-2.8,6.18-.85,26.67,4.47,50.73,15.83,71.51,9.1,16.66,22.03,31.17,38.43,43.13,27.64,20.16,55.52,26.06,56.69,26.3.6.12,1.2.18,1.79.18,3.67,0,7.05-2.29,8.33-5.87.8-2.24.65-4.62-.28-6.65,2.63-1.35,4.5-3.99,4.77-7.09,2.28-25.61-4.36-63.25-29.82-92.07-9.91-11.22-21.87-20.13-35.55-26.48-15.06-6.99-32.23-10.86-51.03-11.52-.1,0-.21,0-.31,0h0ZM140.98,274.17c-5.99-4.19-14.06-10.47-22.49-18.87-17.14-17.08-29.49-36.3-36.87-57.32,36.58,23.34,52.52,52.91,59.36,76.19h0Z"/>
      </g>
      <g>
        <path class="cls-1" d="M163.44,263.3c-1.55,0-3.03-.82-3.83-2.22-.87-1.5-21.18-37.37-19.81-87.16.81-29.28,9.03-57.23,24.43-83.07,19.13-32.1,49.44-60.96,90.09-85.78.7-.43,1.5-.65,2.31-.65.57,0,1.14.11,1.69.33,1.3.54,2.28,1.66,2.61,3.03,35.47,144.16-45.94,217.13-76.58,244.6-1.43,1.28-2.75,2.46-3.93,3.54-.84.77-1.91,1.16-2.98,1.16-.94,0-1.88-.3-2.67-.9-1.7-1.29-2.24-3.6-1.29-5.51s2.34-4.47,3.91-7.38c13.13-24.3,43.18-79.89,23.72-125.62-20.56,24.12-32.02,72.7-33.22,141.26-.04,1.99-1.39,3.71-3.32,4.21-.37.1-.74.14-1.11.14Z"/>
        <path class="cls-2" d="M256.62,8.85c36.49,148.31-52.8,219.74-79.2,243.81,9.32-18.64,53.62-88.35,24.89-142.71-32.43,30.98-38.09,104.66-38.87,148.92,0,0-82.31-142.87,93.18-250.02M256.62,0c-1.61,0-3.21.44-4.61,1.3-41.27,25.2-72.08,54.57-91.58,87.29-15.79,26.5-24.22,55.16-25.05,85.21-1.41,51.02,19.5,87.95,20.4,89.49,1.61,2.79,4.56,4.43,7.67,4.43.73,0,1.48-.09,2.21-.28,3.59-.93,6.19-3.98,6.59-7.6,1.55,1.12,3.37,1.67,5.18,1.67,2.15,0,4.28-.78,5.97-2.31,1.18-1.08,2.49-2.25,3.91-3.52,15.35-13.76,43.92-39.37,64.06-79.86,24.63-49.52,29.29-106.41,13.87-169.09-.67-2.74-2.62-5-5.22-6.07-1.08-.45-2.23-.67-3.37-.67h0ZM172.8,242.45c2.37-53.51,11.55-92.9,26.89-115.61,12.71,42.33-14.12,91.97-26.22,114.37-.23.42-.45.84-.67,1.25h0Z"/>
      </g>
      <g>
        <path class="cls-1" d="M300.41,377.5c-50.54,0-100.92-26.09-149.74-77.57-1.45-1.53-1.62-3.86-.41-5.58.85-1.21,2.22-1.89,3.63-1.89.59,0,1.19.12,1.76.37,50.28,21.85,93.23,32.93,127.67,32.93,38.11,0,66.76-12.97,87.37-39.62l-2.69-.62c-42.86-9.96-79.87-18.56-117.41-18.56-32.52,0-61.53,6.48-91.31,20.39-.6.28-1.24.42-1.87.42-1.29,0-2.55-.56-3.42-1.61-1.28-1.56-1.35-3.78-.17-5.42.46-.63,11.5-15.64,34.44-30.73,21.06-13.85,56.61-30.36,106.35-30.36,52.57,0,110.65,18.11,172.63,53.83,1.14.66,1.92,1.78,2.15,3.07.23,1.29-.13,2.62-.98,3.62-54.5,64.58-111.02,97.32-167.97,97.33h-.02Z"/>
        <path class="cls-2" d="M294.6,224.08c44.89,0,101.4,13.47,170.42,53.24-50.9,60.3-106.39,95.76-164.59,95.76-47.39,0-96.56-23.48-146.54-76.19,50.13,21.79,93.39,33.3,129.43,33.3,41.17,0,72.95-15,94.89-46.84-46.05-10.65-86.83-20.81-127.62-20.81-30.33,0-60.66,5.61-93.19,20.81,0,0,43.03-59.26,137.21-59.26M294.6,215.23c-22.4,0-43.89,3.26-63.88,9.68-16.05,5.16-31.16,12.36-44.9,21.4-23.61,15.52-35.11,31.17-35.59,31.82-2.32,3.19-2.24,7.52.16,10.62-1.47.63-2.79,1.67-3.76,3.06-2.41,3.45-2.07,8.12.83,11.17,49.68,52.38,101.15,78.95,152.97,78.95,58.31,0,115.97-33.27,171.36-98.9,1.69-2,2.41-4.65,1.95-7.24-.45-2.58-2.03-4.83-4.3-6.14-62.66-36.11-121.48-54.42-174.84-54.42h0ZM162.24,290.85c28.79-13.27,56.89-19.46,88.34-19.46,35.79,0,71.34,7.98,112.13,17.45-19.35,21.84-45.45,32.5-79.39,32.5s-73.44-10.25-121.07-30.48h0Z"/>
      </g>
      <g>
        <path class="cls-1" d="M300.41,373.52c-49.41,0-98.81-25.68-146.85-76.32l-1.5-1.58,1.99.87c51.5,22.38,93.78,33.26,129.26,33.26,41.73,0,72.54-15.09,94.15-46.12l-8.57-1.99c-43.09-10.01-80.31-18.66-118.31-18.66-33.12,0-62.67,6.6-93,20.76l-1.55.72,1.01-1.39c.11-.15,11.06-15.05,33.4-29.74,20.61-13.55,55.41-29.7,104.16-29.7,51.86,0,109.27,17.93,170.64,53.29l.46.26-.34.4c-53.71,63.64-109.2,95.91-164.93,95.92h-.02Z"/>
        <path class="cls-3" d="M294.6,224.08c44.89,0,101.4,13.47,170.42,53.24-50.9,60.3-106.39,95.76-164.59,95.76-47.39,0-96.56-23.48-146.54-76.19,50.13,21.79,93.39,33.3,129.43,33.3,41.17,0,72.95-15,94.89-46.84-46.05-10.65-86.83-20.81-127.62-20.81-30.33,0-60.66,5.61-93.19,20.81,0,0,43.03-59.26,137.21-59.26M294.6,223.2c-21.57,0-42.24,3.13-61.44,9.3-15.36,4.94-29.82,11.83-42.97,20.47-22.41,14.73-33.41,29.7-33.52,29.85l-2.01,2.77,3.1-1.45c30.27-14.14,59.76-20.72,92.81-20.72,37.95,0,75.14,8.64,118.21,18.65,2.63.61,5.27,1.23,7.94,1.84-21.51,30.54-52.08,45.39-93.41,45.39-35.42,0-77.64-10.87-129.08-33.22l-3.99-1.73,2.99,3.15c48.12,50.74,97.64,76.46,147.19,76.46,55.86,0,111.46-32.32,165.27-96.07l.68-.81-.92-.53c-61.43-35.4-118.92-53.35-170.86-53.35h0Z"/>
      </g>
      <g>
        <path class="cls-1" d="M146.77,288.79c-.27-.06-27.24-5.76-53.43-24.85-24.18-17.63-52.62-50.61-50.8-107.58v-.44s.46.02.46.02c33.91,1.19,61.02,13.02,80.58,35.16,23.69,26.82,29.86,61.89,27.74,85.76l-.23,2.61-.64-2.54c-7.26-28.85-27.44-68.9-82.26-96.17,7.66,37.79,28.55,64.84,44.8,80.92,17.75,17.57,33.93,26.2,34.09,26.29l2.75,1.45-3.05-.63Z"/>
        <path class="cls-3" d="M42.98,156.38c85.81,3.01,111.91,75.27,107.89,120.44-4.52-17.94-20.07-65.74-83.3-96.85,14.59,74.28,79.29,108.4,79.29,108.4,0,0-107.39-22.08-103.88-131.98M42.12,155.46l-.03.89c-.81,25.23,4.19,47.92,14.86,67.44,8.53,15.62,20.69,29.25,36.13,40.51,26.26,19.15,53.33,24.87,53.6,24.93l6.09,1.25-5.5-2.9c-.16-.08-16.3-8.7-34.01-26.23-16.06-15.91-36.68-42.58-44.47-79.78,54.06,27.18,74.01,66.85,81.22,95.47l1.28,5.07.46-5.21c2.13-23.96-4.07-59.17-27.85-86.09-9.18-10.39-20.26-18.64-32.93-24.52-14.09-6.54-30.22-10.17-47.96-10.79l-.89-.03h0Z"/>
      </g>
      <g>
        <path class="cls-1" d="M163.06,259.1c-.21-.36-20.62-36.39-19.28-85.06.79-28.59,8.82-55.89,23.87-81.14,18.79-31.54,48.65-59.94,88.74-84.42l.52-.31.14.59c34.9,141.84-45.21,213.65-75.37,240.68-1.44,1.29-2.76,2.48-3.96,3.57l-1.76,1.6,1.06-2.13c.96-1.91,2.3-4.39,3.85-7.26,13.93-25.78,46.49-86.02,21.32-134.52-23.77,23.15-37.01,74.37-38.3,148.2l-.03,1.6-.8-1.39Z"/>
        <path class="cls-3" d="M256.62,8.85c36.49,148.31-52.8,219.74-79.2,243.81,9.32-18.64,53.62-88.35,24.89-142.71-32.43,30.98-38.09,104.66-38.87,148.92,0,0-82.31-142.87,93.18-250.02M257.19,7.47l-1.03.63c-40.15,24.52-70.06,52.97-88.89,84.57-15.08,25.31-23.13,52.68-23.93,81.35-1.35,48.8,19.13,84.94,19.34,85.3l1.6,2.77.06-3.2c1.29-73.26,14.33-124.2,37.74-147.47,24.55,48.2-7.74,107.95-21.59,133.57-1.55,2.87-2.9,5.36-3.85,7.28l-2.13,4.26,3.52-3.21c1.2-1.09,2.52-2.28,3.96-3.56,30.21-27.08,110.47-99.02,75.51-241.11l-.29-1.17h0Z"/>
      </g>
      <g>
        <path class="cls-1" d="M52.42,354.29c-14.27,0-28.98-2.96-43.73-8.81l-.47-.18.24-.44c27.69-50.55,72.73-58.1,97.1-58.1,11.64,0,23.38,1.58,34.88,4.69l3.21.87h-3.33c-48.49,0-83.84,14.76-105.08,43.87,4.9.54,9.89.82,14.85.82h.01c53.66,0,93.37-32.1,93.77-32.42l2.4-1.97-1.75,2.56c-.34.49-34.3,49.12-92.1,49.12Z"/>
        <path class="cls-3" d="M105.57,287.2c12.09,0,23.9,1.73,34.76,4.68-31.11,0-77.78,5.52-105.89,44.66,5.34.62,10.56.91,15.66.91,54.45,0,94.06-32.52,94.06-32.52,0,0-33.5,48.93-91.74,48.93-13.27,0-27.83-2.54-43.57-8.78,23.56-43.01,61.34-57.87,96.72-57.87M105.58,286.31h0c-19.46,0-37.36,4.35-53.21,12.91-18.3,9.89-33.2,25.17-44.28,45.42l-.48.88.93.37c14.8,5.87,29.57,8.84,43.9,8.84,30.34,0,53.86-13.41,68.25-24.65,15.58-12.18,24.13-24.54,24.21-24.66l3.51-5.12-4.8,3.94c-.1.08-10.05,8.18-26.48,16.17-15.15,7.37-39.08,16.15-67.01,16.15-4.69,0-9.4-.25-14.04-.73,21.2-28.58,56.27-43.07,104.27-43.07h6.66l-6.43-1.74c-11.54-3.12-23.31-4.71-34.99-4.71h0Z"/>
      </g>
    </g>
  </g>
</svg>